Coordinates
version=1
nRows=17
nColumns=40
inDegrees=yes

Units are S.I. units (second, meters, Newtons, ...)
Angles are in degrees.

endheader
time	pelvis_tilt	pelvis_list	pelvis_rotation	pelvis_tx	pelvis_ty	pelvis_tz	hip_flexion_r	hip_adduction_r	hip_rotation_r	knee_angle_r	knee_angle_r_beta	ankle_angle_r	subtalar_angle_r	mtp_angle_r	hip_flexion_l	hip_adduction_l	hip_rotation_l	knee_angle_l	knee_angle_l_beta	ankle_angle_l	subtalar_angle_l	mtp_angle_l	lumbar_extension	lumbar_bending	lumbar_rotation	arm_flex_r	arm_add_r	arm_rot_r	elbow_flex_r	pro_sup_r	wrist_flex_r	wrist_dev_r	arm_flex_l	arm_add_l	arm_rot_l	elbow_flex_l	pro_sup_l	wrist_flex_l	wrist_dev_l
     37.17342857	     -4.28455650	     -3.04188093	     -3.44625199	      1.12417831	      0.92697145	      0.40539840	     24.16373519	     -4.55395310	    -12.61132878	     13.74201495	     13.74201495	      1.20508707	      7.04294161	      5.46418815	      3.68900388	     -4.22400934	    -12.08788008	     15.07725926	     15.07725926	     16.13010625	     -6.96138972	     -5.20523729	    -10.11202780	      2.41550125	      0.75504259	     -9.41094819	    -15.63958408	     -9.24204797	     29.87793504	     46.92362197	      0.00000000	      0.00000000	     12.47919021	    -18.47176038	    -13.22725668	     76.31851056	     47.21596295	      0.00000000	      0.00000000
     37.18685714	     -4.18582318	     -3.04618509	     -3.43472991	      1.12592150	      0.92620449	      0.40795115	     23.67540186	     -4.35092060	    -12.67118292	     14.47677293	     14.47677293	      1.59078944	      6.67769772	      4.86870610	      2.94120149	     -4.35159599	    -12.12450466	     14.85381783	     14.85381783	     16.42709099	     -6.81159144	     -5.31821326	     -9.93772495	      2.53146182	      0.71671950	     -9.62038092	    -15.31185019	     -9.30109291	     29.93900421	     46.91857960	      0.00000000	      0.00000000	     12.52771658	    -18.37581967	    -13.46993348	     76.54213949	     47.24016781	      0.00000000	      0.00000000
     37.20028571	     -4.01194201	     -2.84693125	     -3.50477341	      1.12791234	      0.92535069	      0.41065391	     23.16897772	     -4.28374884	    -12.12664876	     15.18327652	     15.18327652	      0.91475196	      5.63475111	      0.67212908	      1.99523556	     -4.28363218	    -12.61440733	     14.45500314	     14.45500314	     16.75510213	     -6.02918487	     -5.57926841	     -9.85015648	      2.41785142	      0.51169483	     -9.80657668	    -14.96928909	    -10.23179649	     30.88235955	     46.88113726	      0.00000000	      0.00000000	     12.18367285	    -17.79518073	    -15.27996004	     77.67853882	     47.43107714	      0.00000000	      0.00000000
     37.21371429	     -3.84389466	     -2.83589889	     -3.51672518	      1.12983874	      0.92471002	      0.41340732	     22.78295370	     -4.13108586	    -11.88401787	     16.19427522	     16.19427522	      1.52074783	      5.14583717	      0.10294696	      1.15828305	     -4.39565548	    -12.69275884	     14.22761337	     14.22761337	     17.04259362	     -5.88390422	     -5.51534508	     -9.75171727	      2.52843924	      0.61218728	     -9.73502396	    -14.74918154	    -10.19973705	     30.85560241	     46.87342747	      0.00000000	      0.00000000	     12.25773214	    -17.64442235	    -15.35073870	     77.75003678	     47.44279604	      0.00000000	      0.00000000
     37.22714286	     -3.84384000	     -2.93741864	     -3.51917972	      1.13177906	      0.92405579	      0.41636775	     22.37719426	     -3.81915122	    -11.71302065	     16.74705378	     16.74705378	      2.12789229	      4.96207992	     -0.25669276	      0.59224520	     -4.67324244	    -12.68888753	     14.16849723	     14.16849723	     17.30315264	     -5.91198329	     -5.50762921	     -9.44076595	      2.74489649	      0.67772350	     -9.59212874	    -14.42839219	    -10.14737213	     30.91144391	     46.86628734	      0.00000000	      0.00000000	     12.17992543	    -17.45905519	    -15.35503555	     77.74704990	     47.44360632	      0.00000000	      0.00000000
     37.24057143	     -3.58390451	     -2.91221236	     -3.60569419	      1.13377522	      0.92373013	      0.41951066	     22.24831357	     -3.63319245	    -10.87123442	     18.16435796	     18.16435796	      2.69103263	      3.51740485	     -1.16774488	     -0.32448890	     -4.81815175	    -13.01422457	     14.02977713	     14.02977713	     17.75505492	     -5.36399142	     -4.86361101	     -9.49360161	      2.85028277	      0.83169071	     -9.28771059	    -14.24414156	    -10.04801661	     31.05354929	     46.83813189	      0.00000000	      0.00000000	     12.05926689	    -17.00924200	    -16.06746451	     77.81834646	     47.50446727	      0.00000000	      0.00000000
     37.25400000	     -3.37021278	     -3.07330962	     -3.63755836	      1.13574147	      0.92356920	      0.42274865	     21.89613622	     -3.29966000	    -10.56022889	     19.04638274	     19.04638274	      3.35471673	      3.06233265	     -1.64658968	     -1.01244065	     -5.20093672	    -13.07680888	     14.21181331	     14.21181331	     18.04597553	     -5.36776163	     -4.62009392	     -9.50941359	      3.13676168	      0.92269850	     -8.85470988	    -14.09676828	     -9.97447286	     31.23314824	     46.82304550	      0.00000000	      0.00000000	     11.88097526	    -16.77243489	    -16.24205488	     77.73255692	     47.51745872	      0.00000000	      0.00000000
     37.26742857	     -3.21106008	     -3.16635572	     -3.71832336	      1.13766868	      0.92347515	      0.42627780	     21.72496821	     -2.96325077	     -9.97846893	     20.03843768	     20.03843768	      4.02485708	      2.04827261	     -2.06059474	     -1.54231187	     -5.56637928	    -13.29139536	     14.59558370	     14.59558370	     18.47058822	     -5.24243271	     -3.98867248	     -9.45338453	      3.29570122	      0.95234212	     -8.26376210	    -13.92060207	     -9.81205510	     31.56396453	     46.79108671	      0.00000000	      0.00000000	     11.58978139	    -16.50603468	    -16.75927752	     77.54736183	     47.55473386	      0.00000000	      0.00000000
     37.28085714	     -3.09790689	     -3.35833240	     -3.80282054	      1.13963100	      0.92369976	      0.42988345	     21.34347566	     -2.55908420	     -9.73986004	     20.51757439	     20.51757439	      4.61705030	      1.94771541	     -2.33958396	     -2.04660150	     -6.02644691	    -13.31491589	     14.90093015	     14.90093015	     18.49367098	     -5.39409602	     -3.82457456	     -9.34331846	      3.58587603	      1.17502512	     -7.70629054	    -13.67028758	     -9.73214373	     31.80397950	     46.77766619	      0.00000000	      0.00000000	     11.22059231	    -16.12634137	    -16.72127368	     77.38238255	     47.54786014	      0.00000000	      0.00000000
     37.29428571	     -2.92192725	     -3.54613478	     -3.84361849	      1.14138940	      0.92403069	      0.43381809	     21.05383761	     -2.08265432	     -9.22136409	     21.25720723	     21.25720723	      5.42062599	      1.02076286	     -1.88670082	     -2.11148593	     -6.71089956	    -13.67208837	     16.32141487	     16.32141487	     19.98273095	     -4.65133924	     -0.87315356	     -9.36396056	      3.81254373	      0.77237515	     -6.82226237	    -13.83834715	     -8.03567638	     32.73128669	     46.54909379	      0.00000000	      0.00000000	     10.51890425	    -15.82600133	    -17.99538902	     77.22027921	     47.67983928	      0.00000000	      0.00000000
     37.30771429	     -2.67409591	     -3.65944977	     -3.91872471	      1.14328707	      0.92467987	      0.43776260	     20.53548215	     -1.75092236	     -9.06642248	     21.70918841	     21.70918841	      6.00996144	      0.86461413	     -2.11825128	     -2.50836566	     -7.16388799	    -13.66242119	     17.07696792	     17.07696792	     19.82213816	     -5.03915807	     -0.88324053	     -9.44266607	      3.94035025	      0.99763336	     -6.08517683	    -13.64842442	     -7.97950885	     33.09237240	     46.53365546	      0.00000000	      0.00000000	     10.08341765	    -15.48703765	    -17.89389289	     76.89209152	     47.66562546	      0.00000000	      0.00000000
     37.32114286	     -2.54674822	     -3.83972815	     -3.85410643	      1.14479850	      0.92514280	      0.44186562	     20.09651667	     -1.32273443	     -8.98549306	     22.05673529	     22.05673529	      6.53811131	      0.44501982	     -2.16660231	     -2.28024715	     -7.85223229	    -13.38905098	     18.68514179	     18.68514179	     19.67052947	     -5.69589269	     -1.10388081	     -9.39236779	      4.11042501	      0.84610787	     -5.18580527	    -13.55715872	     -7.91608156	     33.83427008	     46.49994486	      0.00000000	      0.00000000	      9.65881924	    -15.49146553	    -17.93833879	     76.19208307	     47.65755763	      0.00000000	      0.00000000
     37.33457143	     -2.44894316	     -3.96494861	     -3.78643772	      1.14615813	      0.92571624	      0.44605807	     19.59935670	     -0.94327631	     -8.97121859	     22.22422465	     22.22422465	      7.02172233	      0.21266550	     -2.14007411	     -1.87476712	     -8.52220139	    -13.08883514	     20.51588688	     20.51588688	     19.32942133	     -6.41092226	     -1.44557883	     -9.32566857	      4.19429384	      0.75274299	     -4.29122184	    -13.41158385	     -7.80081101	     34.75444980	     46.45507507	      0.00000000	      0.00000000	      9.16046084	    -15.35395966	    -17.91302623	     75.39349180	     47.64264890	      0.00000000	      0.00000000
     37.34800000	     -2.39202189	     -4.07230504	     -3.64988311	      1.14727684	      0.92628507	      0.45025969	     19.08539773	     -0.59428846	     -9.09616345	     22.27278432	     22.27278432	      7.47474069	      0.11166830	     -2.06103290	     -1.14052392	     -9.23974192	    -12.61166754	     22.78711888	     22.78711888	     18.76389771	     -7.32059534	     -2.06371796	     -9.21579172	      4.25571808	      0.61936657	     -3.41129123	    -13.30101280	     -7.62928668	     35.93916966	     46.39523501	      0.00000000	      0.00000000	      8.67899001	    -15.23118870	    -17.80626413	     74.40945830	     47.61972194	      0.00000000	      0.00000000
     37.36142857	     -2.29869199	     -4.16217435	     -3.45558757	      1.14808570	      0.92683478	      0.45440640	     18.55562910	     -0.29669047	     -9.32426165	     22.37142080	     22.37142080	      8.12793454	      0.18110981	     -1.41513427	     -0.27699859	     -9.92245309	    -11.87452642	     25.17477216	     25.17477216	     17.07202746	     -8.98235324	     -4.80702070	     -9.20932540	      4.30708627	      0.98690281	     -3.65919439	    -13.69502551	     -6.31568112	     39.62993047	     46.12843331	      0.00000000	      0.00000000	      8.93793696	    -14.97989446	    -17.15412514	     72.41809676	     47.56943138	      0.00000000	      0.00000000
     37.37485714	     -2.30061921	     -4.29909867	     -3.16689050	      1.14846827	      0.92726157	      0.45849963	     18.02909553	      0.04698612	     -9.69855853	     22.22869982	     22.22869982	      8.42939663	      0.29943052	     -1.46002442	      1.15670649	    -10.76382972	    -10.99457607	     28.37975716	     28.37975716	     16.07687832	    -10.18706996	     -5.55120969	     -9.15224601	      4.36765055	      0.74183986	     -2.45213228	    -13.61538584	     -6.24148268	     40.64118340	     46.08712344	      0.00000000	      0.00000000	      8.40264521	    -14.97540474	    -16.78668500	     71.43122302	     47.52835675	      0.00000000	      0.00000000
     37.38828571	     -2.25912720	     -4.36238776	     -2.79791660	      1.14865912	      0.92757928	      0.46233982	     17.52635873	      0.27316923	    -10.13055730	     22.21782894	     22.21782894	      8.83853093	      0.34441003	     -1.52380410	      2.73365471	    -11.44561725	     -9.83270190	     31.74851498	     31.74851498	     14.48684869	    -11.92771466	     -6.97736602	     -9.07349354	      4.34276240	      0.50177871	     -1.52637621	    -13.70275762	     -5.87444230	     42.63307016	     45.98550122	      0.00000000	      0.00000000	      8.20420563	    -15.02483701	    -16.15655708	     69.60889965	     47.46209692	      0.00000000	      0.00000000
